<svg id="visual" viewBox="0 0 360 240" width="360" height="240" xmlns="http://www.w3.org/2000/svg" xmlns:xlink="http://www.w3.org/1999/xlink" version="1.1"><g stroke-width="1" stroke-linejoin="bevel"><path d="M154 128L159 165L167 153Z" fill="#0a2b45" stroke="#0a2b45"></path><path d="M115 150L155 169L159 165Z" fill="#1a4672" stroke="#1a4672"></path><path d="M154 128L115 150L159 165Z" fill="#153f67" stroke="#153f67"></path><path d="M155 169L169 186L159 165Z" fill="#051726" stroke="#051726"></path><path d="M159 165L169 186L167 153Z" fill="#27548a" stroke="#27548a"></path><path d="M150 200L169 186L155 169Z" fill="#00101c" stroke="#00101c"></path><path d="M169 186L197 158L167 153Z" fill="#0d3250" stroke="#0d3250"></path><path d="M167 153L199 151L154 128Z" fill="#08243a" stroke="#08243a"></path><path d="M100 181L150 200L155 169Z" fill="#071e30" stroke="#071e30"></path><path d="M197 158L199 151L167 153Z" fill="#051726" stroke="#051726"></path><path d="M115 150L100 181L155 169Z" fill="#051726" stroke="#051726"></path><path d="M77 145L86 166L115 150Z" fill="#0d3250" stroke="#0d3250"></path><path d="M115 150L86 166L100 181Z" fill="#11395b" stroke="#11395b"></path><path d="M110 85L77 145L115 150Z" fill="#071e30" stroke="#071e30"></path><path d="M116 72L110 85L154 128Z" fill="#11395b" stroke="#11395b"></path><path d="M154 128L110 85L115 150Z" fill="#11395b" stroke="#11395b"></path><path d="M77 145L75 176L86 166Z" fill="#0d3250" stroke="#0d3250"></path><path d="M86 166L75 176L100 181Z" fill="#11395b" stroke="#11395b"></path><path d="M100 181L115 240L150 200Z" fill="#0d3250" stroke="#0d3250"></path><path d="M270 156L224 123L199 151Z" fill="#0d3250" stroke="#0d3250"></path><path d="M199 151L224 123L154 128Z" fill="#0d3250" stroke="#0d3250"></path><path d="M175 65L116 72L154 128Z" fill="#153f67" stroke="#153f67"></path><path d="M110 85L68 70L77 145Z" fill="#153f67" stroke="#153f67"></path><path d="M213 89L175 65L154 128Z" fill="#27548a" stroke="#27548a"></path><path d="M224 123L213 89L154 128Z" fill="#204d7e" stroke="#204d7e"></path><path d="M107 240L115 240L100 181Z" fill="#0d3250" stroke="#0d3250"></path><path d="M150 200L221 240L169 186Z" fill="#0d3250" stroke="#0d3250"></path><path d="M213 89L178 54L175 65Z" fill="#0a2b45" stroke="#0a2b45"></path><path d="M175 65L120 48L116 72Z" fill="#11395b" stroke="#11395b"></path><path d="M84 240L107 240L100 181Z" fill="#00101c" stroke="#00101c"></path><path d="M178 54L172 51L175 65Z" fill="#1a4672" stroke="#1a4672"></path><path d="M172 51L120 48L175 65Z" fill="#204d7e" stroke="#204d7e"></path><path d="M116 72L68 70L110 85Z" fill="#08243a" stroke="#08243a"></path><path d="M120 48L68 70L116 72Z" fill="#051726" stroke="#051726"></path><path d="M19 198L59 223L75 176Z" fill="#204d7e" stroke="#204d7e"></path><path d="M59 223L84 240L100 181Z" fill="#051726" stroke="#051726"></path><path d="M224 123L231 72L213 89Z" fill="#1a4672" stroke="#1a4672"></path><path d="M213 89L231 72L178 54Z" fill="#204d7e" stroke="#204d7e"></path><path d="M204 0L168 0L172 51Z" fill="#0a2b45" stroke="#0a2b45"></path><path d="M75 176L59 223L100 181Z" fill="#051726" stroke="#051726"></path><path d="M12 167L75 176L77 145Z" fill="#1a4672" stroke="#1a4672"></path><path d="M68 70L32 122L77 145Z" fill="#0a2b45" stroke="#0a2b45"></path><path d="M115 240L221 240L150 200Z" fill="#071e30" stroke="#071e30"></path><path d="M169 186L221 240L197 158Z" fill="#071e30" stroke="#071e30"></path><path d="M197 158L270 156L199 151Z" fill="#204d7e" stroke="#204d7e"></path><path d="M224 123L271 83L231 72Z" fill="#00101c" stroke="#00101c"></path><path d="M59 223L64 240L84 240Z" fill="#00101c" stroke="#00101c"></path><path d="M274 185L270 156L197 158Z" fill="#153f67" stroke="#153f67"></path><path d="M221 240L274 185L197 158Z" fill="#0d3250" stroke="#0d3250"></path><path d="M221 240L244 240L274 185Z" fill="#153f67" stroke="#153f67"></path><path d="M32 122L12 167L77 145Z" fill="#153f67" stroke="#153f67"></path><path d="M59 223L0 240L64 240Z" fill="#08243a" stroke="#08243a"></path><path d="M12 167L19 198L75 176Z" fill="#0d3250" stroke="#0d3250"></path><path d="M290 143L224 123L270 156Z" fill="#00101c" stroke="#00101c"></path><path d="M290 143L271 83L224 123Z" fill="#08243a" stroke="#08243a"></path><path d="M204 0L172 51L178 54Z" fill="#0d3250" stroke="#0d3250"></path><path d="M290 166L290 143L270 156Z" fill="#071e30" stroke="#071e30"></path><path d="M274 185L290 166L270 156Z" fill="#08243a" stroke="#08243a"></path><path d="M285 201L290 166L274 185Z" fill="#0a2b45" stroke="#0a2b45"></path><path d="M32 122L0 167L12 167Z" fill="#08243a" stroke="#08243a"></path><path d="M12 167L0 199L19 198Z" fill="#204d7e" stroke="#204d7e"></path><path d="M0 106L0 167L32 122Z" fill="#051726" stroke="#051726"></path><path d="M244 240L285 201L274 185Z" fill="#00101c" stroke="#00101c"></path><path d="M244 34L178 54L231 72Z" fill="#204d7e" stroke="#204d7e"></path><path d="M172 51L168 0L120 48Z" fill="#08243a" stroke="#08243a"></path><path d="M-2 32L0 65L68 70Z" fill="#051726" stroke="#051726"></path><path d="M277 67L244 34L231 72Z" fill="#153f67" stroke="#153f67"></path><path d="M303 82L280 76L271 83Z" fill="#051726" stroke="#051726"></path><path d="M271 83L277 67L231 72Z" fill="#071e30" stroke="#071e30"></path><path d="M0 84L32 122L68 70Z" fill="#11395b" stroke="#11395b"></path><path d="M0 84L0 106L32 122Z" fill="#11395b" stroke="#11395b"></path><path d="M280 76L277 67L271 83Z" fill="#1a4672" stroke="#1a4672"></path><path d="M0 167L0 199L12 167Z" fill="#1a4672" stroke="#1a4672"></path><path d="M19 198L0 240L59 223Z" fill="#051726" stroke="#051726"></path><path d="M244 34L204 0L178 54Z" fill="#08243a" stroke="#08243a"></path><path d="M0 65L0 84L68 70Z" fill="#27548a" stroke="#27548a"></path><path d="M42 0L68 70L120 48Z" fill="#204d7e" stroke="#204d7e"></path><path d="M233 0L232 0L244 34Z" fill="#08243a" stroke="#08243a"></path><path d="M244 34L232 0L204 0Z" fill="#1a4672" stroke="#1a4672"></path><path d="M280 76L303 82L277 67Z" fill="#27548a" stroke="#27548a"></path><path d="M290 143L303 82L271 83Z" fill="#204d7e" stroke="#204d7e"></path><path d="M360 112L303 82L290 143Z" fill="#071e30" stroke="#071e30"></path><path d="M320 165L290 143L290 166Z" fill="#0a2b45" stroke="#0a2b45"></path><path d="M233 0L244 34L235 0Z" fill="#153f67" stroke="#153f67"></path><path d="M235 0L244 34L272 0Z" fill="#051726" stroke="#051726"></path><path d="M272 0L244 34L277 67Z" fill="#204d7e" stroke="#204d7e"></path><path d="M0 199L0 240L19 198Z" fill="#11395b" stroke="#11395b"></path><path d="M244 240L294 240L285 201Z" fill="#051726" stroke="#051726"></path><path d="M285 201L320 165L290 166Z" fill="#071e30" stroke="#071e30"></path><path d="M341 240L320 165L285 201Z" fill="#0a2b45" stroke="#0a2b45"></path><path d="M168 0L42 0L120 48Z" fill="#204d7e" stroke="#204d7e"></path><path d="M42 0L37 0L68 70Z" fill="#00101c" stroke="#00101c"></path><path d="M37 0L-2 32L68 70Z" fill="#051726" stroke="#051726"></path><path d="M0 65L-2 32L0 84Z" fill="#204d7e" stroke="#204d7e"></path><path d="M0 84L-2 32L0 106Z" fill="#071e30" stroke="#071e30"></path><path d="M0 106L-2 32L0 167Z" fill="#08243a" stroke="#08243a"></path><path d="M0 167L-2 32L0 199Z" fill="#11395b" stroke="#11395b"></path><path d="M0 199L-2 32L0 240Z" fill="#051726" stroke="#051726"></path><path d="M360 31L272 0L277 67Z" fill="#204d7e" stroke="#204d7e"></path><path d="M37 0L0 0L-2 32Z" fill="#08243a" stroke="#08243a"></path><path d="M294 240L341 240L285 201Z" fill="#071e30" stroke="#071e30"></path><path d="M320 165L360 112L290 143Z" fill="#153f67" stroke="#153f67"></path><path d="M360 226L360 112L320 165Z" fill="#1a4672" stroke="#1a4672"></path><path d="M303 82L360 31L277 67Z" fill="#051726" stroke="#051726"></path><path d="M360 112L360 91L303 82Z" fill="#27548a" stroke="#27548a"></path><path d="M341 240L360 226L320 165Z" fill="#0a2b45" stroke="#0a2b45"></path><path d="M341 240L360 240L360 226Z" fill="#0d3250" stroke="#0d3250"></path><path d="M360 91L360 31L303 82Z" fill="#11395b" stroke="#11395b"></path><path d="M360 31L360 16L272 0Z" fill="#11395b" stroke="#11395b"></path><path d="M360 91L362 3L360 31Z" fill="#1a4672" stroke="#1a4672"></path><path d="M360 31L362 3L360 16Z" fill="#11395b" stroke="#11395b"></path><path d="M360 16L360 0L272 0Z" fill="#0a2b45" stroke="#0a2b45"></path><path d="M360 112L362 3L360 91Z" fill="#204d7e" stroke="#204d7e"></path><path d="M360 226L362 3L360 112Z" fill="#08243a" stroke="#08243a"></path><path d="M360 240L362 3L360 226Z" fill="#27548a" stroke="#27548a"></path><path d="M362 3L360 0L360 16Z" fill="#071e30" stroke="#071e30"></path></g></svg>