<svg id="visual" viewBox="0 0 360 240" width="360" height="240" xmlns="http://www.w3.org/2000/svg" xmlns:xlink="http://www.w3.org/1999/xlink" version="1.1"><rect x="0" y="0" width="360" height="240" fill="#27548A"></rect><path d="M0 85L51 138L103 130L154 140L206 123L257 94L309 138L360 82L360 241L309 241L257 241L206 241L154 241L103 241L51 241L0 241Z" fill="#183b4e"></path><path d="M0 110L51 118L103 149L154 120L206 144L257 154L309 131L360 127L360 241L309 241L257 241L206 241L154 241L103 241L51 241L0 241Z" fill="#123243"></path><path d="M0 144L51 169L103 161L154 162L206 181L257 137L309 173L360 142L360 241L309 241L257 241L206 241L154 241L103 241L51 241L0 241Z" fill="#0d2939"></path><path d="M0 198L51 163L103 175L154 174L206 186L257 203L309 174L360 174L360 241L309 241L257 241L206 241L154 241L103 241L51 241L0 241Z" fill="#08212f"></path><path d="M0 198L51 194L103 216L154 223L206 216L257 193L309 206L360 199L360 241L309 241L257 241L206 241L154 241L103 241L51 241L0 241Z" fill="#031925"></path></svg>